<svg xmlns="http://www.w3.org/2000/svg" viewBox="0 0 620 380" role="img" aria-label="Matriz de criticidad">
  <rect x="20" y="20" width="580" height="340" rx="14" fill="#ffffff" stroke="#e5e7eb" />
  <text x="310" y="48" text-anchor="middle" font-size="14" fill="#0f172a" font-weight="700">FACTOR DE FRECUENCIA DE FALLA (FF)</text>
  <text x="32" y="200" text-anchor="middle" font-size="12" fill="#0f172a" font-weight="700" transform="rotate(-90 32 200)">NIVEL DE SEVERIDAD</text>

  <g font-size="12" fill="#0f172a" font-weight="700">
    <text x="190" y="80" text-anchor="middle">1</text>
    <text x="270" y="80" text-anchor="middle">2</text>
    <text x="350" y="80" text-anchor="middle">3</text>
    <text x="430" y="80" text-anchor="middle">4</text>
    <text x="510" y="80" text-anchor="middle">5</text>
  </g>

  <g font-size="12" fill="#0f172a" font-weight="700">
    <text x="110" y="130" text-anchor="middle">5</text>
    <text x="110" y="180" text-anchor="middle">4</text>
    <text x="110" y="230" text-anchor="middle">3</text>
    <text x="110" y="280" text-anchor="middle">2</text>
    <text x="110" y="330" text-anchor="middle">1</text>
  </g>

  <g font-size="12" fill="#0f172a" font-weight="700" text-anchor="middle">
    <rect x="150" y="110" width="80" height="40" fill="#f97316" /><text x="190" y="136">75</text>
    <rect x="230" y="110" width="80" height="40" fill="#ef4444" /><text x="270" y="136">95</text>
    <rect x="310" y="110" width="80" height="40" fill="#ef4444" /><text x="350" y="136">110</text>
    <rect x="390" y="110" width="80" height="40" fill="#ef4444" /><text x="430" y="136">120</text>
    <rect x="470" y="110" width="80" height="40" fill="#ef4444" /><text x="510" y="136">125</text>

    <rect x="150" y="160" width="80" height="40" fill="#f59e0b" /><text x="190" y="186">50</text>
    <rect x="230" y="160" width="80" height="40" fill="#f59e0b" /><text x="270" y="186">70</text>
    <rect x="310" y="160" width="80" height="40" fill="#ef4444" /><text x="350" y="186">90</text>
    <rect x="390" y="160" width="80" height="40" fill="#ef4444" /><text x="430" y="186">105</text>
    <rect x="470" y="160" width="80" height="40" fill="#ef4444" /><text x="510" y="186">115</text>

    <rect x="150" y="210" width="80" height="40" fill="#22c55e" /><text x="190" y="236">30</text>
    <rect x="230" y="210" width="80" height="40" fill="#f59e0b" /><text x="270" y="236">45</text>
    <rect x="310" y="210" width="80" height="40" fill="#f59e0b" /><text x="350" y="236">65</text>
    <rect x="390" y="210" width="80" height="40" fill="#ef4444" /><text x="430" y="236">85</text>
    <rect x="470" y="210" width="80" height="40" fill="#ef4444" /><text x="510" y="236">100</text>

    <rect x="150" y="260" width="80" height="40" fill="#22c55e" /><text x="190" y="286">15</text>
    <rect x="230" y="260" width="80" height="40" fill="#22c55e" /><text x="270" y="286">25</text>
    <rect x="310" y="260" width="80" height="40" fill="#f59e0b" /><text x="350" y="286">40</text>
    <rect x="390" y="260" width="80" height="40" fill="#ef4444" /><text x="430" y="286">60</text>
    <rect x="470" y="260" width="80" height="40" fill="#ef4444" /><text x="510" y="286">80</text>

    <rect x="150" y="310" width="80" height="40" fill="#22c55e" /><text x="190" y="336">5</text>
    <rect x="230" y="310" width="80" height="40" fill="#22c55e" /><text x="270" y="336">10</text>
    <rect x="310" y="310" width="80" height="40" fill="#22c55e" /><text x="350" y="336">20</text>
    <rect x="390" y="310" width="80" height="40" fill="#f59e0b" /><text x="430" y="336">35</text>
    <rect x="470" y="310" width="80" height="40" fill="#f59e0b" /><text x="510" y="336">55</text>
  </g>
</svg>
